<svg width="313" height="115" viewBox="0 0 313 115" fill="none" xmlns="http://www.w3.org/2000/svg">
<g clip-path="url(#clip0)">
<path d="M0 90.4419H3.01722L6.87531 103.362L8.55704 108.885H8.70543C9.39791 107.061 10.0409 105.187 10.6839 103.362L15.2345 90.6885H15.9764L20.527 103.362C21.17 105.187 21.8625 107.061 22.5055 108.885H22.6539L24.3356 103.362L28.1937 90.4419H31.1615L23.5937 114.852H21.912L17.3119 101.981C16.7679 100.403 16.1743 98.8746 15.6302 97.2965H15.4818C14.9377 98.8746 14.3936 100.354 13.8001 101.932L9.1506 114.852H7.46887L0 90.4419Z" fill="#181716"/>
<path d="M38.2842 102.425C38.2842 95.3732 43.5272 89.8008 51.0456 89.8008C58.5639 89.8008 63.807 95.3239 63.807 102.425C63.807 109.526 58.465 115.049 51.0456 115.049C43.6262 115 38.2842 109.526 38.2842 102.425ZM60.8887 102.425C60.8887 96.8033 56.8327 92.4637 51.0456 92.4637C45.2584 92.4637 41.2025 96.8033 41.2025 102.425C41.2025 107.998 45.2584 112.387 51.0456 112.387C56.7832 112.387 60.8887 107.998 60.8887 102.425Z" fill="#181716"/>
<path d="M73.6995 90.4419H75.4801L86.3619 102.721C87.9447 104.546 89.5275 106.321 91.1103 108.146H91.2093V102.08V90.4419H93.9792V114.852H93.3856L81.3167 101.291L76.5188 95.8664H76.4199V101.932V114.359H73.6995V90.4419Z" fill="#181716"/>
<path d="M105.059 90.4419H111.538C120.59 90.4419 125.289 94.5843 125.289 102.277C125.289 109.97 120.244 114.359 111.538 114.359H105.059V90.4419ZM111.093 111.795C118.711 111.795 122.321 108.787 122.321 102.228C122.321 95.9651 118.859 93.0555 111.093 93.0555H107.878V111.795H111.093Z" fill="#181716"/>
<path d="M148.981 90.4419L149.278 93.0062H138.001V100.798H148.487V103.362H138.001V111.795H149.278L148.981 114.359H135.181V90.4419H148.981Z" fill="#181716"/>
<path d="M176.878 113.817L176.631 114.359H173.762L166.293 103.806H162.336V114.359H159.517V90.4419H166.442C171.438 90.4419 174.306 92.661 174.306 97.1979C174.306 100.354 172.526 102.573 169.311 103.362L176.878 113.817ZM162.336 101.291H165.749C169.706 101.291 171.487 100.157 171.487 97.1979C171.487 94.0418 169.706 92.9569 165.749 92.9569H162.336V101.291Z" fill="#181716"/>
<path d="M183.655 110.019L185.683 108.639L186.277 108.787C187.76 111.499 189.393 112.534 191.866 112.534C194.586 112.534 196.565 110.661 196.565 108.392C196.565 106.222 195.477 104.792 191.124 102.968C186.128 100.896 184.446 98.7759 184.446 95.7185C184.446 92.4144 187.068 89.8008 191.569 89.8008C194.883 89.8008 197.158 91.2309 198.444 93.4993L196.466 94.8308L195.872 94.6829C194.834 93.1048 193.597 92.1678 191.47 92.1678C188.849 92.1678 187.315 93.598 187.315 95.5705C187.315 97.3951 188.305 98.4307 192.558 100.354C198.098 102.869 199.434 104.891 199.434 108.244C199.434 111.844 196.317 114.902 191.866 114.902C188.156 115 185.584 113.619 183.655 110.019Z" fill="#181716"/>
<path d="M209.227 90.4419H212.046V100.946H225.352V90.4419H228.171V114.359H225.352V103.51H212.046V114.359H209.227V90.4419Z" fill="#181716"/>
<path d="M238.014 102.425C238.014 95.3732 243.257 89.8008 250.776 89.8008C258.294 89.8008 263.537 95.3239 263.537 102.425C263.537 109.526 258.195 115.049 250.776 115.049C243.356 115 238.014 109.526 238.014 102.425ZM260.619 102.425C260.619 96.8033 256.563 92.4637 250.776 92.4637C244.989 92.4637 240.933 96.8033 240.933 102.425C240.933 107.998 244.989 112.387 250.776 112.387C256.563 112.387 260.619 107.998 260.619 102.425Z" fill="#181716"/>
<path d="M290.841 113.817L290.594 114.359H287.725L280.256 103.806H276.299V114.359H273.479V90.4419H280.404C285.4 90.4419 288.269 92.661 288.269 97.1979C288.269 100.354 286.488 102.573 283.273 103.362L290.841 113.817ZM276.299 101.291H279.712C283.669 101.291 285.449 100.157 285.449 97.1979C285.449 94.0418 283.669 92.9569 279.712 92.9569H276.299V101.291Z" fill="#181716"/>
<path d="M312.703 90.4419L313 93.0062H301.722V100.798H312.208V103.362H301.722V111.795H313L312.703 114.359H298.903V90.4419H312.703Z" fill="#181716"/>
<path d="M198.494 21.3529C197.406 20.0707 195.823 19.3804 193.845 19.2324C193.845 19.2324 193.202 19.1831 192.954 19.1831C192.954 19.1831 187.316 19.1831 187.019 19.1831C186.277 19.1831 185.584 19.2324 184.892 19.331C184.892 19.331 184.892 19.2324 184.892 19.1338C184.892 18.8872 185.04 12.723 179.847 7.39708C175.148 2.46569 167.58 0 157.489 0C157.143 0 155.857 0 155.56 0C145.421 0 137.902 2.46569 133.154 7.34777C127.96 12.6737 128.109 18.8379 128.109 19.0845C128.109 19.1831 128.109 19.2817 128.109 19.2817C127.416 19.1831 126.724 19.1338 125.982 19.1338C125.685 19.1338 120.046 19.1338 120.046 19.1338C119.848 19.1338 119.205 19.1831 119.156 19.1831C117.177 19.331 115.595 20.0708 114.506 21.3036C112.973 23.0296 112.775 25.298 112.775 26.5802C112.775 27.8623 113.022 30.1308 114.506 31.8568C115.792 33.2869 117.622 34.0266 120.046 34.0266H125.091C127.911 39.8949 130.928 46.3057 132.709 50.2015C135.825 56.9082 139.139 57.4507 140.128 57.4507C140.227 57.4507 140.276 57.4507 140.326 57.4507H140.425L135.528 71.012C135.38 71.4558 135.577 71.8996 135.973 72.0969C136.072 72.1462 136.22 72.1462 136.319 72.1462C136.616 72.1462 136.913 71.9983 137.061 71.7024L144.481 57.4507H148.883C152.395 57.4507 155.066 55.5767 156.451 52.0755C157.885 55.5767 160.507 57.4507 164.019 57.4507H168.421L175.84 71.7024C175.989 71.9983 176.285 72.1462 176.582 72.1462C176.681 72.1462 176.829 72.1462 176.928 72.0969C177.324 71.8996 177.522 71.4558 177.374 71.012L172.477 57.4507H172.576C172.625 57.4507 172.675 57.4507 172.773 57.4507C173.763 57.4507 177.077 56.9082 180.193 50.2015C181.974 46.3057 185.04 39.8949 187.81 34.0266H192.855C195.279 34.0266 197.109 33.2869 198.395 31.8568C199.929 30.1308 200.126 27.8623 200.126 26.5802C200.225 25.3473 200.027 23.0789 198.494 21.3529ZM129.741 19.0352C129.741 18.9858 129.642 13.3147 134.341 8.5313C138.743 3.99442 145.915 1.72599 155.511 1.72599C155.857 1.72599 157.143 1.72599 157.44 1.72599C167.085 1.72599 174.208 4.04374 178.61 8.5313C183.309 13.3147 183.21 18.9858 183.21 19.0352C183.21 19.2324 183.21 19.5283 183.21 19.5283C180.292 20.1201 178.165 21.5009 176.879 23.6707L176.829 23.72L168.767 41.4237C168.52 40.4374 168.075 39.4018 167.283 38.5141C165.997 37.084 164.167 36.3443 161.743 36.3443H151.109C148.685 36.3443 146.855 37.084 145.569 38.5141C144.778 39.4018 144.332 40.4374 144.085 41.4237L135.973 23.7693C135.973 23.7693 135.973 23.72 135.924 23.72C134.687 21.5502 132.511 20.1694 129.592 19.5776C129.741 19.5776 129.741 19.2324 129.741 19.0352ZM119.997 32.3992C118.117 32.3992 116.683 31.8568 115.792 30.8212C114.952 29.8349 114.605 28.5527 114.506 27.5665C114.506 27.5171 114.506 27.4678 114.506 27.4185C114.506 27.4185 114.457 27.1226 114.457 26.6788C114.457 26.235 114.506 25.9391 114.506 25.9391C114.506 25.8898 114.506 25.8405 114.506 25.7912C114.605 24.8049 114.902 23.5227 115.792 22.5364C116.485 21.7474 117.474 21.2543 118.76 21.057C119.453 22.4871 121.678 27.1226 124.201 32.4978H119.997V32.3992ZM178.758 49.5605C175.89 55.774 173.07 55.8233 172.872 55.8233C172.823 55.8233 164.117 55.8233 164.117 55.8233C160.556 55.8233 158.281 53.5549 157.391 49.0673C157.292 48.6728 156.945 48.3769 156.55 48.3769C156.154 48.3769 155.758 48.6728 155.709 49.0673C154.818 53.5549 152.543 55.8233 148.982 55.8233C148.982 55.8233 140.276 55.8233 140.227 55.8233C140.029 55.8233 137.21 55.774 134.341 49.5605C130.879 42.0154 122.717 24.9528 120.689 20.8598C120.689 20.8598 125.833 20.8598 126.031 20.8598C128.405 20.8105 133.005 21.6488 134.687 24.509L144.085 45.0236C144.283 45.4674 144.778 45.6153 145.223 45.4674C145.618 45.3195 145.866 44.9743 145.816 44.5304C145.816 44.4811 145.421 41.473 147.102 39.599C148.042 38.5635 149.427 38.021 151.307 38.021H161.941C163.821 38.021 165.255 38.5635 166.145 39.599C167.827 41.473 167.431 44.4811 167.431 44.5304C167.382 44.9249 167.629 45.3195 168.025 45.4674C168.47 45.6647 168.965 45.4674 169.163 45.0236L178.561 24.509C180.242 21.6488 184.793 20.8105 187.217 20.8598C187.414 20.8598 192.559 20.8598 192.559 20.8598C190.382 24.9528 182.221 42.0154 178.758 49.5605ZM198.494 27.3692C198.494 27.4185 198.494 27.4678 198.494 27.5171C198.395 28.5034 198.098 29.7856 197.208 30.7719C196.268 31.8075 194.883 32.3499 193.004 32.3499H188.799C191.371 26.9747 193.548 22.3392 194.24 20.9091C195.526 21.1063 196.516 21.5995 197.208 22.3885C198.049 23.3748 198.395 24.6569 198.494 25.6432C198.494 25.6925 198.494 25.7418 198.494 25.7912C198.494 25.7912 198.544 26.087 198.544 26.5309C198.494 27.0733 198.494 27.3692 198.494 27.3692Z" fill="#181716"/>
</g>
<defs>
<clipPath id="clip0">
<rect width="313" height="115" fill="white"/>
</clipPath>
</defs>
</svg>
