<svg width="293" height="44" viewBox="0 0 293 44" fill="none" xmlns="http://www.w3.org/2000/svg">
<g clip-path="url(#clip0)">
<path d="M68.8232 17.1451H70.9752L73.7304 26.3808L74.9157 30.3178H75.011C75.4943 29.0125 75.9776 27.6861 76.4221 26.3808L79.6606 17.3145H80.1932L83.4317 26.3808C83.8904 27.6861 84.3737 29.0125 84.8428 30.3178H84.9416L86.127 26.3808L88.8821 17.1451H91.0341L85.6437 34.597H84.5007L81.2128 25.3895C80.8247 24.2748 80.4155 23.1635 80.0027 22.0523H79.9075C79.5194 23.1635 79.1349 24.2536 78.7222 25.3648L75.4131 34.597H74.2278L68.8232 17.1451Z" fill="#181716"/>
<path d="M96.1106 25.7035C96.1106 20.6518 99.8571 16.6865 105.223 16.6865C110.589 16.6865 114.335 20.6518 114.335 25.7035C114.335 30.7553 110.518 34.717 105.223 34.717C99.9276 34.717 96.1106 30.78 96.1106 25.7035ZM112.233 25.7035C112.233 21.6678 109.357 18.5739 105.223 18.5739C101.088 18.5739 98.2131 21.6678 98.2131 25.7035C98.2131 29.7393 101.113 32.8331 105.223 32.8331C109.333 32.8331 112.233 29.6899 112.233 25.7035Z" fill="#181716"/>
<path d="M121.391 17.1451H122.671L130.432 25.9434C131.568 27.2487 132.679 28.5293 133.815 29.8239H133.89V17.1592H135.869V34.6111H135.459L126.855 24.8815L123.447 21.001H123.373V34.2478H121.391V17.1451Z" fill="#181716"/>
<path d="M143.767 17.1451H148.353C154.809 17.1451 158.168 20.1191 158.168 25.6118C158.168 31.1045 154.566 34.2654 148.353 34.2654H143.767V17.1451ZM148.068 32.3992C153.508 32.3992 156.093 30.2473 156.093 25.5589C156.093 21.061 153.624 19.0078 148.068 19.0078H145.771V32.4133L148.068 32.3992Z" fill="#181716"/>
<path d="M175.073 17.1451L175.291 18.9831H167.241V24.5676H174.709V26.402H167.241V32.4204H175.291L175.073 34.2584H165.234V17.1451H175.073Z" fill="#181716"/>
<path d="M194.987 33.8738L194.818 34.2584H192.803L187.459 26.6948H184.636V34.2584H182.629V17.1451H187.568C191.145 17.1451 193.174 18.7185 193.174 21.9817C193.174 24.2289 191.918 25.8235 189.596 26.402L194.987 33.8738ZM184.619 24.9062H187.035C189.858 24.9062 191.12 24.1054 191.12 21.9817C191.12 19.731 189.84 18.9337 187.035 18.9337H184.619V24.9062Z" fill="#181716"/>
<path d="M199.82 31.1399L201.27 30.1486L201.683 30.2473C202.741 32.1806 203.905 32.9285 205.669 32.9285C207.627 32.9285 209.006 31.602 209.006 29.9581C209.006 28.4094 208.23 27.3687 205.126 26.0775C201.573 24.6029 200.363 23.0824 200.363 20.9058C200.363 18.5387 202.226 16.6725 205.44 16.6725C207.81 16.6725 209.43 17.6885 210.347 19.3324L208.936 20.299L208.523 20.2003C207.8 19.0643 206.904 18.4117 205.383 18.4117C203.521 18.4117 202.434 19.47 202.434 20.8529C202.434 22.1582 203.14 22.9096 206.156 24.2854C210.096 26.074 211.063 27.5486 211.063 29.9299C211.063 32.5157 208.837 34.6923 205.673 34.6923C203.034 34.6888 201.199 33.7046 199.82 31.1399Z" fill="#181716"/>
<path d="M218.044 17.1451H220.052V24.6628H229.524V17.1451H231.531V34.2584H229.524V26.4973H220.052V34.2584H218.044V17.1451Z" fill="#181716"/>
<path d="M238.587 25.7035C238.587 20.6518 242.333 16.6865 247.699 16.6865C253.065 16.6865 256.811 20.6518 256.811 25.7035C256.811 30.7553 252.994 34.717 247.699 34.717C242.404 34.717 238.587 30.78 238.587 25.7035ZM254.709 25.7035C254.709 21.6678 251.833 18.5739 247.699 18.5739C243.564 18.5739 240.689 21.6678 240.689 25.7035C240.689 29.7393 243.593 32.8331 247.699 32.8331C251.805 32.8331 254.709 29.6899 254.709 25.7035Z" fill="#181716"/>
<path d="M276.246 33.8738L276.076 34.2584H274.044L268.703 26.6948H265.881V34.2584H263.874V17.1451H268.813C272.39 17.1451 274.422 18.7185 274.422 21.9817C274.422 24.2289 273.162 25.8235 270.845 26.402L276.246 33.8738ZM265.874 24.9062H268.298C271.12 24.9062 272.383 24.1054 272.383 21.9817C272.383 19.731 271.102 18.9337 268.298 18.9337H265.881L265.874 24.9062Z" fill="#181716"/>
<path d="M291.831 17.1451L292.05 18.9831H284V24.5676H291.471V26.402H284V32.4204H292.05L291.831 34.2584H281.996V17.1451H291.831Z" fill="#181716"/>
<path d="M51.9394 12.9683C51.5792 12.5748 51.144 12.2573 50.6594 12.0344C50.1747 11.8114 49.6504 11.6876 49.1172 11.6701C49.1172 11.6701 48.7186 11.6489 48.5881 11.6489H44.9897C44.5628 11.6527 44.1364 11.6809 43.7127 11.7336V11.6066C43.6395 8.92842 42.5483 6.3788 40.6612 4.47699C37.779 1.5066 33.207 0.000244141 27.0722 0.000244141H25.9045C19.7732 0.000244141 15.2012 1.5066 12.3191 4.47699C10.4333 6.38006 9.34128 8.92863 9.26401 11.6066C9.26401 11.6666 9.26401 11.7336 9.26401 11.7336C8.84013 11.6828 8.41384 11.6546 7.98696 11.6489H4.39921C4.26869 11.6489 3.88063 11.6489 3.87005 11.6701C3.33691 11.6878 2.81265 11.8117 2.32803 12.0346C1.84341 12.2576 1.40817 12.575 1.04783 12.9683C0.134141 14.0267 -0.010498 15.406 -0.010498 16.1857C-0.010498 16.9653 0.127085 18.3517 1.04783 19.3995C1.81336 20.2779 2.93872 20.7224 4.39569 20.7224H7.44015C9.13701 24.296 10.9679 28.1942 12.0651 30.5543C13.9489 34.643 15.9456 34.971 16.5594 34.971H16.7288L13.776 43.2119C13.7319 43.3353 13.7361 43.4708 13.7878 43.5913C13.8395 43.7117 13.9348 43.8081 14.0547 43.861C14.1206 43.8889 14.1914 43.9033 14.2629 43.9034C14.3579 43.903 14.451 43.8769 14.5324 43.8279C14.6138 43.7788 14.6804 43.7085 14.725 43.6246L19.237 34.9675H21.9146C24.056 34.9675 25.647 33.821 26.5007 31.7008C27.365 33.8175 28.9701 34.9675 31.0868 34.9675H33.7714L38.2658 43.6211C38.3098 43.7055 38.3763 43.7762 38.4578 43.8253C38.5393 43.8745 38.6328 43.9003 38.7279 43.8998C38.7994 43.8991 38.87 43.8847 38.9361 43.8575C39.0554 43.8039 39.1503 43.7074 39.2019 43.5872C39.2535 43.467 39.2581 43.3318 39.2148 43.2084L36.262 34.9675H36.4314C37.0276 34.9675 39.0419 34.6394 40.9257 30.5507C42.0123 28.1907 43.8538 24.2925 45.5507 20.7189H48.5951C50.0486 20.7189 51.1739 20.2744 51.9394 19.3959C52.8567 18.3376 52.9978 16.9618 52.9978 16.1821C52.9978 15.4025 52.8567 14.0161 51.9394 12.9683ZM10.3118 11.5784C10.4156 9.17674 11.4046 6.89848 13.0881 5.18254C15.7692 2.43088 20.0872 1.03741 25.9151 1.03741H27.0969C32.9283 1.03741 37.2428 2.43088 39.9239 5.18254C41.6108 6.89619 42.6003 9.17582 42.7002 11.5784C42.7002 11.6913 42.7002 11.8853 42.7002 11.8888C40.9363 12.2416 39.6381 13.0812 38.8796 14.4041C38.8712 14.4175 38.8641 14.4317 38.8585 14.4465L33.9408 25.1638C33.7915 24.5133 33.4878 23.9083 33.0553 23.4C32.2898 22.5215 31.1644 22.077 29.711 22.077H23.2834C21.8299 22.077 20.701 22.5215 19.939 23.4C19.5065 23.9083 19.2028 24.5133 19.0536 25.1638L14.15 14.45L14.1288 14.4077C13.3703 13.0848 12.0615 12.2628 10.3082 11.8924C10.3012 11.8853 10.3012 11.6913 10.3012 11.5784H10.3118ZM4.4098 19.6923C3.27033 19.6923 2.40955 19.3677 1.84864 18.7292C1.39319 18.1636 1.12339 17.4712 1.07605 16.7466C1.08135 16.7127 1.08135 16.6782 1.07605 16.6443C1.06119 16.4942 1.05412 16.3435 1.05489 16.1927C1.05421 16.0408 1.06128 15.8889 1.07605 15.7376C1.08126 15.7049 1.08126 15.6716 1.07605 15.6389C1.12492 14.9135 1.39451 14.2204 1.84864 13.6527C2.32085 13.1434 2.96091 12.8215 3.65133 12.7461C4.0676 13.621 5.41521 16.4361 6.96037 19.6923H4.4098ZM39.9944 30.1274C38.2552 33.9021 36.5337 33.9445 36.4137 33.9409H31.1221C28.956 33.9409 27.5943 32.5545 27.0475 29.8205C27.0234 29.7007 26.9579 29.5933 26.8624 29.5171C26.7668 29.441 26.6475 29.401 26.5254 29.4042C26.4031 29.4003 26.2834 29.44 26.1877 29.5163C26.0921 29.5926 26.0267 29.7004 26.0033 29.8205C25.4671 32.5545 24.0948 33.9409 21.9287 33.9409H16.6371C16.5136 33.9409 14.7956 33.9021 13.0564 30.1274C10.9397 25.5413 6.00082 15.1661 4.7908 12.6826H8.03282C9.47567 12.6614 12.2661 13.1624 13.2645 14.9051L18.9619 27.3652C19.0169 27.4778 19.1106 27.5669 19.2259 27.6161C19.3412 27.6653 19.4704 27.6714 19.5898 27.6333C19.704 27.5945 19.8015 27.5176 19.8657 27.4154C19.9299 27.3133 19.9571 27.1921 19.9426 27.0723C19.9426 27.0512 19.7097 25.2238 20.7152 24.0808C21.2761 23.4423 22.1263 23.1177 23.2763 23.1177H29.711C30.8504 23.1177 31.7112 23.4423 32.2721 24.0808C33.274 25.2238 33.0482 27.0512 33.0447 27.0723C33.0302 27.1921 33.0573 27.3133 33.1216 27.4154C33.1858 27.5176 33.2832 27.5945 33.3975 27.6333C33.5216 27.6869 33.6618 27.6896 33.7878 27.6407C33.9139 27.5919 34.0157 27.4955 34.0713 27.3722L39.7757 14.898C40.7917 13.1694 43.5786 12.6544 44.9897 12.6755H48.2353C47.0358 15.1591 42.0934 25.5413 39.9838 30.1203L39.9944 30.1274ZM51.9394 16.6443C51.9359 16.6783 51.9359 16.7126 51.9394 16.7466C51.8896 17.4707 51.6201 18.1623 51.1669 18.7292C50.6059 19.3677 49.7558 19.6923 48.6057 19.6923H46.0481C47.5932 16.4361 48.9373 13.621 49.3571 12.7461C50.0475 12.8215 50.6876 13.1434 51.1598 13.6527C51.6113 14.2217 51.8795 14.9142 51.9289 15.6389C51.9253 15.6717 51.9253 15.7048 51.9289 15.7376C51.9483 15.8885 51.9565 16.0406 51.9536 16.1927C51.9563 16.3413 51.948 16.4899 51.9289 16.6372L51.9394 16.6443Z" fill="#181716"/>
</g>
<defs>
<clipPath id="clip0">
<rect width="292.05" height="43.9" fill="white"/>
</clipPath>
</defs>
</svg>
